<?xml version="1.0" encoding="UTF-8"?>
<svg width="55px" height="54px" viewBox="0 0 55 54" version="1.1" xmlns="http://www.w3.org/2000/svg" xmlns:xlink="http://www.w3.org/1999/xlink">
    <!-- Generator: Sketch 47.1 (45422) - http://www.bohemiancoding.com/sketch -->
    <title>Group 8</title>
    <desc>Created with Sketch.</desc>
    <defs></defs>
    <g id="Page-1" stroke="none" stroke-width="1" fill="none" fill-rule="evenodd">
        <g id="Desktop-Copy-5" transform="translate(-373.000000, -494.000000)">
            <g id="Group-8" transform="translate(373.500000, 495.350000)">
                <rect id="Rectangle-11-Copy-6" fill="#C8DAE3" x="1.23591982" y="2.10937956" width="50.3039834" height="47.4266003"></rect>
                <path d="M1.48686705,14.7967921 L51.4274212,14.7967921" id="Line-Copy-25" stroke="#FFFFFF" stroke-width="2.6334" stroke-linecap="square"></path>
                <path d="M2.42129891,27.0588186 L51.4274212,27.0588186" id="Line-Copy-27" stroke="#FFFFFF" stroke-width="2.6334" stroke-linecap="square"></path>
                <path d="M1.45521289,2.5347657 L51.4274212,2.5347657" id="Line-Copy-28" stroke="#FFFFFF" stroke-width="2.6334" stroke-linecap="square"></path>
                <path d="M1.48064384,39.2393791 L52.8913056,39.2393791" id="Line-Copy-54" stroke="#FFFFFF" stroke-width="2.6334" stroke-linecap="square"></path>
                <path d="M12.7382881,2.64939596 L12.7382881,49.6505161" id="Line-Copy-59" stroke="#FFFFFF" stroke-width="2.6334" stroke-linecap="square"></path>
                <path d="M25.9641639,2.64694579 L25.9641639,49.6525572" id="Line-Copy-60" stroke="#FFFFFF" stroke-width="2.6334" stroke-linecap="square"></path>
                <path d="M38.6446783,2.6497843 L38.6446783,51.1702532" id="Line-Copy-61" stroke="#FFFFFF" stroke-width="2.6334" stroke-linecap="square"></path>
                <rect id="Rectangle-9" fill="#FFFFFF" x="25.8690265" y="14.6584077" width="12.768" height="11.97"></rect>
                <path d="M26.8678888,19.0277524 C26.8678888,22.2307616 31.2669516,25.3823938 32.2774154,25.9143768 C33.170429,25.4173336 37.710668,22.1121316 37.710668,19.0277524 C37.710668,17.4618367 36.4294644,16.1806331 34.8635487,16.1806331 C33.724701,16.1806331 32.6778173,16.8449609 32.2270234,17.8177267 C31.7762296,16.8449609 30.8538558,16.1806331 29.715008,16.1806331 C28.1253664,16.1806331 26.8678888,17.4618367 26.8678888,19.0277524 Z" id="Shape-Copy-28" fill="#00547E" opacity="0.9"></path>
                <circle id="Oval-3-Copy-2" stroke="#00547E" stroke-width="3.325" opacity="0.9" cx="32.540899" cy="20.3479328" r="19.8425676"></circle>
            </g>
        </g>
    </g>
</svg>