<svg width="12" height="18" viewBox="0 0 12 18" fill="none" xmlns="http://www.w3.org/2000/svg">
<path fill-rule="evenodd" clip-rule="evenodd" d="M8.51599 8.23147C7.79779 8.71668 6.93198 9 6 9C5.04406 9 4.15773 8.70193 3.4289 8.19365C2.2629 7.38049 1.5 6.02934 1.5 4.5C1.5 2.01472 3.51472 0 6 0C8.48528 0 10.5 2.01472 10.5 4.5C10.5 6.02934 9.7371 7.38049 8.5711 8.19365C8.55283 8.20639 8.53446 8.219 8.51599 8.23147ZM0 18C0 18 0 11.8073 2.66999 8.87771C3.59431 9.58189 4.74832 10 6 10C7.25167 10 8.40569 9.58189 9.33 8.87771C12 11.8073 12 18 12 18H0Z" fill="#979797"/>
</svg>
