<svg width="35" height="42" viewBox="0 0 35 42" fill="none" xmlns="http://www.w3.org/2000/svg">
<path d="M33.2533 41.25L1.54667 41.25C1.10178 41.25 0.75 40.8932 0.75 40.464L0.75 1.536C0.75 1.10679 1.10178 0.75 1.54667 0.75L24.4927 0.75C24.7056 0.75 24.9088 0.834063 25.0578 0.982046L33.8185 9.68228C33.9673 9.83009 34.05 10.0295 34.05 10.2362L34.05 40.464C34.05 40.8932 33.6982 41.25 33.2533 41.25Z" fill="white" stroke="white" stroke-width="1.5"/>
<mask id="mask0" mask-type="alpha" maskUnits="userSpaceOnUse" x="0" y="0" width="35" height="29">
<path d="M33.2533 28.05L1.54667 28.05C1.10178 28.05 0.75 27.6932 0.75 27.264L0.75 1.536C0.75 1.10679 1.10178 0.75 1.54667 0.75L24.4927 0.75C24.7056 0.75 24.9088 0.834063 25.0578 0.982046L33.8185 9.68228C33.9673 9.83009 34.05 10.0295 34.05 10.2362L34.05 27.264C34.05 27.6932 33.6982 28.05 33.2533 28.05Z" fill="white" stroke="white" stroke-width="1.5"/>
</mask>
<g mask="url(#mask0)">
<path fill-rule="evenodd" clip-rule="evenodd" d="M24.7666 0.360107L34.4333 9.96011L24.7666 9.96011V0.360107Z" fill="white" stroke="#2D5D7C" stroke-width="1.5"/>
</g>
<line x1="18" y1="22.05" x2="28.8" y2="22.05" stroke="#2D5D7C" stroke-width="1.5"/>
<line x1="6" y1="26.25" x2="28.8" y2="26.25" stroke="#2D5D7C" stroke-width="1.5"/>
<line x1="6" y1="31.05" x2="28.8" y2="31.0501" stroke="#2D5D7C" stroke-width="1.5"/>
<line x1="6" y1="35.8499" x2="28.8" y2="35.8499" stroke="#2D5D7C" stroke-width="1.5"/>
<path opacity="0.896399" fill-rule="evenodd" clip-rule="evenodd" d="M14.1955 7.19995H9.80461V10.2703H6.6001V14.4774H9.80461V17.5477H14.1955L14.1955 14.4774L17.4001 14.4774V10.2703H14.1955V7.19995Z" fill="#2D5D7C"/>
</svg>
