<svg width="42" height="34" viewBox="0 0 42 34" fill="none" xmlns="http://www.w3.org/2000/svg">
<path fill-rule="evenodd" clip-rule="evenodd" d="M1 1.5L18.8947 1.5V8.95454L1 8.95454L1 1.5ZM0 0.5L1 0.5L18.8947 0.5L19.8947 0.5V1.5V8.95454V9.95454H18.8947L1 9.95454H0L0 8.95454L0 1.5L0 0.5ZM23.1053 1.5L41 1.5V8.95454L23.1053 8.95454V1.5ZM22.1053 0.5L23.1053 0.5L41 0.5L42 0.5V1.5V8.95454V9.95454H41L23.1053 9.95454H22.1053V8.95454V1.5V0.5ZM41 13.3182L23.1053 13.3182V20.7727L41 20.7727V13.3182ZM23.1053 12.3182H22.1053V13.3182V20.7727V21.7727H23.1053L41 21.7727H42V20.7727V13.3182V12.3182H41L23.1053 12.3182ZM1 13.3182L18.8947 13.3182V20.7727L1 20.7727L1 13.3182ZM0 12.3182H1L18.8947 12.3182H19.8947V13.3182V20.7727V21.7727H18.8947L1 21.7727H0L0 20.7727L0 13.3182L0 12.3182ZM41 25.1364L23.1053 25.1364V32.591H41V25.1364ZM23.1053 24.1364H22.1053V25.1364V32.591V33.591H23.1053H41H42V32.591V25.1364V24.1364H41L23.1053 24.1364ZM1 25.1364L18.8947 25.1364V32.591H1L1 25.1364ZM0 24.1364H1L18.8947 24.1364H19.8947V25.1364V32.591V33.591H18.8947H1H0L0 32.591L0 25.1364L0 24.1364Z" fill="white"/>
</svg>
