<svg width="42" height="34" viewBox="0 0 42 34" fill="none" xmlns="http://www.w3.org/2000/svg">
<path fill-rule="evenodd" clip-rule="evenodd" d="M1 1.5L18.8947 1.5V8.95454L1 8.95454L1 1.5ZM0 0.5L1 0.5L18.8947 0.5L19.8947 0.5V1.5V8.95454V9.95454H18.8947L1 9.95454H0L0 8.95454L0 1.5L0 0.5ZM42 0.5L22.1053 0.5V9.95454L42 9.95454V0.5ZM41 13.3182L23.1053 13.3182V20.7727L41 20.7727V13.3182ZM23.1053 12.3182H22.1053V13.3182V20.7727V21.7727H23.1053L41 21.7727H42V20.7727V13.3182V12.3182H41L23.1053 12.3182ZM19.8947 12.3182L0 12.3182L0 21.7727L19.8947 21.7727V12.3182ZM22.1053 24.1364L42 24.1364V33.591H22.1053V24.1364ZM19.8947 24.1364L0 24.1364L0 33.591H19.8947V24.1364Z" fill="white"/>
</svg>
