<svg width="35" height="42" viewBox="0 0 35 42" fill="none" xmlns="http://www.w3.org/2000/svg">
<path d="M33.2533 41.25L1.54667 41.25C1.10178 41.25 0.75 40.8932 0.75 40.464L0.75 1.536C0.75 1.10679 1.10178 0.75 1.54667 0.75L24.4927 0.75C24.7056 0.75 24.9088 0.834064 25.0578 0.982046L33.8185 9.68228L34.347 9.15012L33.8185 9.68228C33.9673 9.83009 34.05 10.0295 34.05 10.2362L34.05 40.464C34.05 40.8932 33.6982 41.25 33.2533 41.25Z" stroke="#DDDDDD" stroke-width="1.5"/>
<mask id="mask0" mask-type="alpha" maskUnits="userSpaceOnUse" x="0" y="0" width="35" height="29">
<path d="M33.2533 28.05L1.54667 28.05C1.10178 28.05 0.75 27.6932 0.75 27.264L0.75 1.536C0.75 1.10679 1.10178 0.75 1.54667 0.75L24.4927 0.75C24.7056 0.75 24.9088 0.834063 25.0578 0.982046L33.8185 9.68228C33.9673 9.83009 34.05 10.0295 34.05 10.2362L34.05 27.264C34.05 27.6932 33.6982 28.05 33.2533 28.05Z" fill="white" stroke="white" stroke-width="1.5"/>
</mask>
<g mask="url(#mask0)">
<path fill-rule="evenodd" clip-rule="evenodd" d="M24.7666 0.360107L34.4333 9.96011L24.7666 9.96011V0.360107Z" stroke="#DDDDDD" stroke-width="1.5"/>
</g>
<line x1="18" y1="22.05" x2="28.8" y2="22.05" stroke="#DDDDDD" stroke-width="1.5"/>
<line x1="6" y1="26.25" x2="28.8" y2="26.25" stroke="#DDDDDD" stroke-width="1.5"/>
<line x1="6" y1="31.05" x2="28.8" y2="31.0501" stroke="#DDDDDD" stroke-width="1.5"/>
<line x1="6" y1="35.8499" x2="28.8" y2="35.8499" stroke="#DDDDDD" stroke-width="1.5"/>
<path opacity="0.896399" d="M9.80461 7.19995V6.44995L9.05461 6.44995V7.19995L9.80461 7.19995ZM14.1955 7.19995L14.9455 7.19995V6.44995L14.1955 6.44995V7.19995ZM9.80461 10.2703V11.0203H10.5546V10.2703H9.80461ZM6.6001 10.2703L6.6001 9.52032H5.8501V10.2703H6.6001ZM6.6001 14.4774H5.8501L5.8501 15.2274H6.6001V14.4774ZM9.80461 14.4774H10.5546L10.5546 13.7274H9.80461L9.80461 14.4774ZM9.80461 17.5477H9.05461V18.2977H9.80461V17.5477ZM14.1955 17.5477V18.2977H14.9455V17.5477H14.1955ZM14.1955 14.4774V13.7274H13.4455V14.4774H14.1955ZM17.4001 14.4774V15.2274H18.1501V14.4774H17.4001ZM17.4001 10.2703H18.1501V9.52032H17.4001V10.2703ZM14.1955 10.2703L13.4455 10.2703V11.0203L14.1955 11.0203V10.2703ZM9.80461 7.94995H14.1955V6.44995H9.80461V7.94995ZM10.5546 10.2703V7.19995L9.05461 7.19995V10.2703H10.5546ZM6.6001 11.0203H9.80461V9.52032H6.6001L6.6001 11.0203ZM7.3501 14.4774L7.3501 10.2703H5.8501L5.8501 14.4774H7.3501ZM9.80461 13.7274H6.6001V15.2274H9.80461L9.80461 13.7274ZM10.5546 17.5477V14.4774H9.05461V17.5477H10.5546ZM14.1955 16.7977H9.80461V18.2977H14.1955V16.7977ZM13.4455 14.4774L13.4455 17.5477H14.9455V14.4774L13.4455 14.4774ZM17.4001 13.7274L14.1955 13.7274V15.2274H17.4001V13.7274ZM16.6501 10.2703V14.4774H18.1501V10.2703H16.6501ZM14.1955 11.0203H17.4001V9.52032H14.1955V11.0203ZM13.4455 7.19995V10.2703L14.9455 10.2703V7.19995L13.4455 7.19995Z" fill="#DDDDDD"/>
</svg>
