<?xml version="1.0" encoding="UTF-8"?>
<svg width="63px" height="59px" viewBox="0 0 63 59" version="1.1" xmlns="http://www.w3.org/2000/svg" xmlns:xlink="http://www.w3.org/1999/xlink">
    <!-- Generator: Sketch 47.1 (45422) - http://www.bohemiancoding.com/sketch -->
    <title>Group 9</title>
    <desc>Created with Sketch.</desc>
    <defs></defs>
    <g id="Page-1" stroke="none" stroke-width="1" fill="none" fill-rule="evenodd">
        <g id="Desktop-Copy-5" transform="translate(-1061.000000, -499.000000)">
            <g id="Group-9" transform="translate(1062.150000, 500.350000)">
                <polyline id="Path-142-Copy-28" fill="#D2E1E8" points="60.8727786 40.3632288 30.5821344 57.6114882 0.09140625 39.7481725 30.6794418 22.8717473 60.8727786 40.3632288"></polyline>
                <polygon id="Path-142-Copy-27" stroke-opacity="0.8" stroke="#555555" stroke-width="1.65" fill="#FFFFFF" stroke-linejoin="round" points="30.5821344 47.3627688 0.09140625 29.499453 30.6794418 12.6230278 60.8727786 30.1145094"></polygon>
                <polygon id="Path-3-Copy-4" stroke="#185B7D" stroke-width="1.65" fill="#FFFFFF" stroke-linejoin="round" points="29.399421 4.91805969 38.3096109 0 46.7719217 4.87689794 37.9091938 9.91368269"></polygon>
                <path d="M37.6753721,17.0622219 L7.84812002,33.6673828" id="Path-4" stroke="#99BBCB" stroke-width="1.1"></path>
                <path d="M44.8724605,21.3910103 L15.5415673,38.035318" id="Path-4-Copy" stroke="#99BBCB" stroke-width="1.1"></path>
                <path d="M52.2446035,25.6514719 L22.9137102,42.2957796" id="Path-4-Copy-2" stroke="#99BBCB" stroke-width="1.1"></path>
                <path d="M23.529862,16.9445389 L53.0385598,33.9447548" id="Line" stroke="#99BBCB" stroke-width="1.1" stroke-linecap="square"></path>
                <path d="M16.5410059,20.9750699 L45.9173215,38.111254" id="Line-Copy" stroke="#99BBCB" stroke-width="1.1" stroke-linecap="square"></path>
                <path d="M8.48275313,25.2500442 L37.8590687,42.3862283" id="Line-Copy-2" stroke="#99BBCB" stroke-width="1.1" stroke-linecap="square"></path>
                <polygon id="Path-5" fill-opacity="0.4" fill="#00547E" points="31.7359042 29.3546809 37.982804 25.8374365 44.4431735 29.5407299 38.2212264 33.0651038"></polygon>
                <polygon id="Path-142-Copy-30" stroke="#00547E" stroke-width="1.65" opacity="0.8" stroke-linejoin="round" points="30.5821344 47.2456789 0.09140625 29.3823631 30.6794418 12.505938 60.8727786 29.9974195"></polygon>
            </g>
        </g>
    </g>
</svg>