<?xml version="1.0" encoding="UTF-8"?>
<svg width="51px" height="51px" viewBox="0 0 51 51" version="1.1" xmlns="http://www.w3.org/2000/svg" xmlns:xlink="http://www.w3.org/1999/xlink">
    <!-- Generator: Sketch 47.1 (45422) - http://www.bohemiancoding.com/sketch -->
    <title>Group 14</title>
    <desc>Created with Sketch.</desc>
    <defs></defs>
    <g id="Page-1" stroke="none" stroke-width="1" fill="none" fill-rule="evenodd">
        <g id="Desktop-Copy-4" transform="translate(-901.000000, -900.000000)">
            <g id="Group-14" transform="translate(901.000000, 900.000000)">
                <rect id="Rectangle-9" fill-opacity="0.3" fill="#00547E" x="7.14218927" y="0.929931641" width="38.352802" height="38.352802" rx="1"></rect>
                <rect id="Rectangle-9-Copy" fill-opacity="0.5" fill="#136187" x="11.3430281" y="6.4290749" width="38.9007556" height="38.9007556" rx="1"></rect>
                <rect id="Rectangle-9-Copy-2" fill-opacity="0.25" fill="#00547E" x="0.986685034" y="9.79425637" width="40.2523745" height="40.2523745" rx="1"></rect>
                <path d="M11.2990931,10.1552734 L40.6216672,10.1552734 C41.1790287,10.1552734 41.6308594,10.6109663 41.6308594,11.1538963 L41.6308594,39.1662318 L11.2990931,39.1662318 L11.2990931,10.1552734 Z" id="Rectangle-10" fill="#00547E" opacity="0.430095616"></path>
                <path d="M16.4226114,21.278744 C16.4226114,27.1368454 24.4682195,32.9009817 26.3162938,33.873945 C27.9495594,32.9648843 36.2533696,26.9198787 36.2533696,21.278744 C36.2533696,18.4147832 33.9101291,16.0715427 31.0461683,16.0715427 C28.9632878,16.0715427 27.0486037,17.2865563 26.2241301,19.0656834 C25.3996566,17.2865563 23.7126932,16.0715427 21.6298127,16.0715427 C18.7224586,16.0715427 16.4226114,18.4147832 16.4226114,21.278744 Z" id="Shape-Copy-20" fill="#FFFFFF"></path>
            </g>
        </g>
    </g>
</svg>